<svg xmlns="http://www.w3.org/2000/svg" width="198" height="43" viewBox="0 0 198 43"><defs><style>.a{opacity:0.3;}</style></defs><g class="a" transform="translate(-0.4 -0.3)"><g transform="translate(0.4 0.3)"><path d="M13.2,67.7C6.734,67.7.4,63.042.4,52.532.4,41.988,6.734,37.4,13.2,37.4a13.525,13.525,0,0,1,7.463,1.986l-1.951,4.279a8.492,8.492,0,0,0-4.759-1.4c-3.9,0-7.463,3.081-7.463,10.2s3.663,10.271,7.463,10.271a8.492,8.492,0,0,0,4.759-1.4l1.951,4.382A13.135,13.135,0,0,1,13.2,67.7" transform="translate(-0.4 -24.699)"/><path d="M78.3,67.7c-8.251,0-12.8-6.539-12.8-15.166S70.019,37.4,78.3,37.4c8.251,0,12.8,6.47,12.8,15.132C91.108,61.159,86.555,67.7,78.3,67.7Zm0-25.608c-4.588,0-6.847,4.108-6.847,10.373s2.26,10.408,6.847,10.408,6.847-4.142,6.847-10.408S82.892,42.09,78.3,42.09Z" transform="translate(-43.213 -24.699)"/><path d="M156.726,10.81A3.444,3.444,0,0,1,153.2,7.455a3.531,3.531,0,0,1,7.052,0A3.466,3.466,0,0,1,156.726,10.81Zm-2.978,5.272H159.7v29.1h-5.957Z" transform="translate(-100.888 -2.799)"/><path d="M207.123,67.082V47.671c0-3.389-2.054-5.512-6.094-5.512a15.5,15.5,0,0,0-5.341.856v24.1H189.8V39.454A29.306,29.306,0,0,1,200.995,37.4c8.148,0,12.085,3.56,12.085,9.723V67.116h-5.957" transform="translate(-124.958 -24.699)"/><path d="M284.691,43.3a23.77,23.77,0,0,1-9.791-2.054V.3h5.888V14.336a14.815,14.815,0,0,1,5.683-1.2c7.5,0,12.6,5.409,12.6,14.31,0,10.99-5.683,15.851-14.379,15.851Zm.753-25.54a11.389,11.389,0,0,0-4.656.959v19.1a11.735,11.735,0,0,0,4.211.753c4.69,0,8.148-3.252,8.148-10.681.034-6.368-2.978-10.134-7.7-10.134Z" transform="translate(-180.924 -0.3)"/><path d="M368.1,67.7c-8.353,0-12.6-3.389-12.6-9.141,0-8.114,8.627-9.552,17.426-10.031V46.678c0-3.663-2.431-4.964-6.162-4.964a21.245,21.245,0,0,0-8.045,1.78l-1.506-4.04A27.2,27.2,0,0,1,367.38,37.4c6.95,0,11.195,2.7,11.195,9.894v18.35c-2.088,1.13-6.368,2.054-10.476,2.054Zm4.861-15.235c-5.957.308-11.88.822-11.88,5.991,0,3.081,2.362,4.964,6.847,4.964a14.692,14.692,0,0,0,5.033-.753Z" transform="translate(-233.93 -24.699)"/><path d="M444.272,67.7a21.007,21.007,0,0,1-9.072-2.054l1.986-4.519a16.012,16.012,0,0,0,6.916,1.883c3.184,0,5.306-1.575,5.306-4.006,0-2.636-2.225-3.663-5.17-4.759-3.9-1.472-8.251-3.252-8.251-8.7,0-4.793,3.732-8.148,10.2-8.148a16.961,16.961,0,0,1,8.49,2.054l-1.849,4.108a13,13,0,0,0-5.991-1.712c-3.081,0-4.793,1.609-4.793,3.732,0,2.636,2.157,3.56,5.033,4.656,4.04,1.506,8.525,3.184,8.525,8.867-.034,5.17-4.04,8.593-11.332,8.593" transform="translate(-286.345 -24.699)"/><path d="M530.263,52.329l-19.343,2.7c.582,5.238,4.006,7.874,8.9,7.874a18.476,18.476,0,0,0,8.045-1.78l1.712,4.416A23.617,23.617,0,0,1,519.41,67.6c-9.175,0-14.31-5.888-14.31-15.166,0-8.9,4.964-15.132,13.112-15.132,7.566,0,12.051,4.964,12.051,12.8A12.076,12.076,0,0,1,530.263,52.329ZM518.178,41.648c-4.519,0-7.5,3.458-7.6,9.517l14.1-1.951C524.614,44.147,522.047,41.648,518.178,41.648Z" transform="translate(-332.314 -24.633)"/></g></g></svg>