<svg xmlns="http://www.w3.org/2000/svg" width="217.049" height="53.572" viewBox="0 0 217.049 53.572"><defs><style>.a{opacity:0.3;}</style></defs><g class="a" transform="translate(0 0.004)"><path d="M16.764,51.227l-.382.157A73.342,73.342,0,0,0,7.7,54.733a.981.981,0,0,0-.3.3c-.081.151-.162.308-.226.46-.319.76-.837,1.906-.994,2.435l-.145.389v.146l.065.081h.081l.367-.151c.853-.389,1.912-.994,2.986-1.524H9.6q2.949-1.375,5.866-2.819a1.628,1.628,0,0,0,.383-.378l1.064-2.139v-.151c0-.157-.081-.227-.146-.157M8.231,47.879c.157-.308.832-1.6.994-1.907V45.9A135.1,135.1,0,0,1,25.973,21.363l.162-.23a.136.136,0,0,0,0-.228c-.081-.077-.162-.155-.226-.077h-.3A128.009,128.009,0,0,0,12.73,23.266a2.005,2.005,0,0,0-.772.454c-3.2,3.813-6.173,7.85-9,11.968a2.448,2.448,0,0,1,.092.686s.675,5.332,1.675,9.3C2.284,52.908,0,62.5,0,62.5v.157c0,.075.081.075.145.075H1.594c.076,0,.157-.075.238-.151l.065-.308c1.448-3.96,3.133-7.924,4.953-11.737.464-.842,1.382-2.662,1.382-2.662" transform="translate(0 -9.169)"/><path d="M34.921,24.254v-.305c0-.078-.082-.157-.147-.228a.311.311,0,0,0-.238.07l-.15.23A129.133,129.133,0,0,0,15.423,52.977l-.162.225v.233c.064.07.064.07.162.07h.064l.228-.07c4.261-1.755,8.614-3.278,12.951-4.574a1.174,1.174,0,0,0,.611-.453C31.189,44.75,35.6,37.586,35.6,37.586a.562.562,0,0,0,.092-.459s-.767-8.535-.767-12.873" transform="translate(-6.727 -10.458)"/><path d="M49.794,1.451C48.735.533,47.114.077,44.685,0a24.559,24.559,0,0,0-7.7,1.369,3.75,3.75,0,0,0-1.144.683c-3.041,2.822-5.931,5.871-8.68,8.919l-.237.227a.151.151,0,0,0,0,.229c.075.077.156.149.237.077l.3-.077a120.681,120.681,0,0,1,13.41-2.138,1.514,1.514,0,0,1,.832.229.942.942,0,0,1,.308.762,129.825,129.825,0,0,0,.455,13.107v.3a.18.18,0,0,0,.155.153h.082c.081,0,.145,0,.145-.078l.157-.228a116.044,116.044,0,0,1,8.075-10.281,2.163,2.163,0,0,0,.464-.92c.9-5.563-.464-9.824-1.755-10.891M81.719,23.709a6.316,6.316,0,0,0-4.9-1.907A6.843,6.843,0,0,0,71.1,24.54V22.05H68.114V42.458H71.1V29.933c0-3.112,1.9-5.475,4.882-5.475a4.273,4.273,0,0,1,3.532,1.492Zm16.03,8.547c0-3.154-.411-6.017-2.5-8.13a8.521,8.521,0,0,0-11.694,0c-2.069,2.114-2.479,4.977-2.479,8.13s.41,6.011,2.478,8.129a8.521,8.521,0,0,0,11.694,0c2.084-2.117,2.5-4.974,2.5-8.128m-2.987,0c0,2.28-.13,4.807-1.615,6.3A5.244,5.244,0,0,1,89.4,40.054a5.086,5.086,0,0,1-3.678-1.495c-1.5-1.5-1.657-4.024-1.657-6.3s.155-4.812,1.657-6.306A5.077,5.077,0,0,1,89.4,24.457a5.236,5.236,0,0,1,3.743,1.493c1.486,1.494,1.616,4.022,1.616,6.306m23.575,0c0-3.2-.41-6.6-2.479-8.666a7.123,7.123,0,0,0-4.979-1.788,6.576,6.576,0,0,0-5.774,2.611V12.931h-2.987V42.458H105.1V40.012a6.558,6.558,0,0,0,5.774,2.7,7.113,7.113,0,0,0,4.979-1.788c2.069-2.069,2.479-5.472,2.479-8.663m-2.987,0c0,3.98-.664,7.8-5.1,7.8s-5.148-3.818-5.148-7.8.719-7.8,5.148-7.8,5.1,3.816,5.1,7.8m10.354,10.2V22.05h-2.987V42.458Zm.2-26.213V12.888h-3.343v3.357ZM147.26,42.458V29.393a7.522,7.522,0,0,0-2.124-5.684,7.145,7.145,0,0,0-5.227-1.907,7.378,7.378,0,0,0-5.72,2.488V22.05H131.2V42.458h2.986V29.889c0-3.566,1.988-5.432,5.056-5.432s5.029,1.822,5.029,5.432V42.458Zm21.291,0V29.349c0-4.6-2.733-7.547-7.341-7.547a7.278,7.278,0,0,0-5.719,2.487V12.931H152.5V42.458h2.988V29.848c0-3.525,2.03-5.391,5.1-5.391s4.973,1.822,4.973,5.391V42.458Zm20.853-10.2c0-3.154-.421-6.017-2.495-8.13a8.535,8.535,0,0,0-11.7,0c-2.058,2.114-2.485,4.977-2.485,8.13s.427,6.011,2.485,8.129a8.534,8.534,0,0,0,11.7,0c2.073-2.117,2.495-4.974,2.495-8.128m-2.987,0c0,2.28-.13,4.807-1.621,6.3a5.285,5.285,0,0,1-3.743,1.495,5.139,5.139,0,0,1-3.689-1.495c-1.5-1.5-1.657-4.024-1.657-6.3s.157-4.812,1.657-6.306a5.131,5.131,0,0,1,3.689-1.493A5.276,5.276,0,0,1,184.8,25.95c1.491,1.494,1.621,4.022,1.621,6.306m22.948,0c0-3.154-.41-6.017-2.494-8.13a8.5,8.5,0,0,0-11.677,0c-2.086,2.114-2.5,4.977-2.5,8.13s.41,6.011,2.5,8.129a8.5,8.5,0,0,0,11.677,0c2.084-2.117,2.494-4.974,2.494-8.128m-2.986,0c0,2.28-.119,4.807-1.615,6.3a5.2,5.2,0,0,1-3.731,1.495,5.117,5.117,0,0,1-3.689-1.495c-1.485-1.5-1.66-4.024-1.66-6.3s.174-4.812,1.66-6.306a5.11,5.11,0,0,1,3.689-1.493,5.2,5.2,0,0,1,3.731,1.493c1.5,1.494,1.615,4.022,1.615,6.306m22.517,10.2V12.931h-2.987V24.414a6.581,6.581,0,0,0-5.774-2.611,7.115,7.115,0,0,0-4.979,1.788c-2.075,2.069-2.484,5.469-2.484,8.666s.41,6.594,2.484,8.663a7.1,7.1,0,0,0,4.979,1.788,6.622,6.622,0,0,0,5.812-2.7v2.446Zm-2.987-10.2c0,3.98-.664,7.8-5.115,7.8s-5.136-3.818-5.136-7.8.691-7.8,5.136-7.8S225.909,28.273,225.909,32.256Z" transform="translate(-11.846 0)"/></g></svg>