<svg xmlns="http://www.w3.org/2000/svg" width="243" height="75.838" viewBox="0 0 243 75.838"><defs><style>.a{opacity:0.3;}</style></defs><path class="a" d="M457.844,459.053a4.935,4.935,0,1,1-4.935-4.934A4.925,4.925,0,0,1,457.844,459.053ZM437.5,469v1.215a9.48,9.48,0,0,0-7.363-3.038c-8.274,0-14.727,6.3-14.727,15.031,0,8.654,6.378,15.031,14.727,15.031a9.218,9.218,0,0,0,7.363-3.112v1.29a1.038,1.038,0,0,0,1.063,1.062h6.148V467.932h-6.148A1.091,1.091,0,0,0,437.5,469Zm0,18.294a7.541,7.541,0,0,1-6.148,3.113c-4.858,0-8.579-3.036-8.579-8.2s3.721-8.2,8.579-8.2a7.749,7.749,0,0,1,6.148,3.112Zm11.767-19.358h7.287v28.544h-7.287V467.935Zm108.86-.76a9.485,9.485,0,0,0-7.365,3.038V454.2h-7.287v42.284h6.15a1.085,1.085,0,0,0,1.062-1.063v-1.29a9.4,9.4,0,0,0,7.363,3.112c8.275,0,14.727-6.375,14.727-15.029S566.323,467.175,558.125,467.175Zm-1.215,23.154a7.432,7.432,0,0,1-6.15-3.112V477.044a8.239,8.239,0,0,1,6.15-3.112c4.858,0,8.578,3.036,8.578,8.2S561.769,490.329,556.911,490.329Zm-17.232-10.779v17H532.39v-16.17c0-4.706-1.518-6.6-5.615-6.6a8.158,8.158,0,0,0-5.924,2.81v19.89h-7.286V467.935h5.767A1.086,1.086,0,0,1,520.4,469v1.215a10.456,10.456,0,0,1,7.742-3.038,11.822,11.822,0,0,1,7.972,2.734c2.58,2.126,3.568,4.858,3.568,9.641Zm-43.8-12.376a9.483,9.483,0,0,0-7.363,3.038V454.2h-7.287v42.284h6.148a1.086,1.086,0,0,0,1.063-1.063v-1.29a9.4,9.4,0,0,0,7.363,3.112c8.275,0,14.727-6.375,14.727-15.029a14.472,14.472,0,0,0-14.652-15.034Zm-1.215,23.154a7.431,7.431,0,0,1-6.148-3.112V477.044a8.238,8.238,0,0,1,6.148-3.112c4.86,0,8.579,3.036,8.579,8.2S499.52,490.329,494.661,490.329Zm-19.737-23.154a11.591,11.591,0,0,1,3.34.381v6.756s-6.073-2.05-9.868,2.278v19.965h-7.289V467.935h6.15A1.085,1.085,0,0,1,468.319,469v1.215a9.976,9.976,0,0,1,6.605-3.038ZM399.24,493.9c-.379-.911-.759-1.9-1.138-2.733-.608-1.366-1.216-2.657-1.746-3.871l-.076-.076c-5.239-11.388-10.855-22.925-16.777-34.312l-.227-.457q-.934-1.772-1.821-3.568a21.846,21.846,0,0,0-2.733-4.176,12.261,12.261,0,0,0-9.64-4.707,12.739,12.739,0,0,0-9.716,4.555,26.031,26.031,0,0,0-2.733,4.176q-.889,1.8-1.821,3.568l-.228.457c-5.846,11.386-11.539,22.925-16.777,34.312l-.077.151c-.531,1.216-1.139,2.506-1.747,3.871q-.569,1.254-1.138,2.733a17.032,17.032,0,0,0-.911,8.2,16.134,16.134,0,0,0,9.869,12.6,15.581,15.581,0,0,0,6.149,1.215,17.137,17.137,0,0,0,1.974-.152,20.052,20.052,0,0,0,7.592-2.58,38.444,38.444,0,0,0,9.413-7.895,39.888,39.888,0,0,0,9.413,7.895,20.055,20.055,0,0,0,7.591,2.58,16.974,16.974,0,0,0,1.975.152,15.312,15.312,0,0,0,6.148-1.215,16.1,16.1,0,0,0,9.869-12.6,14.383,14.383,0,0,0-.687-8.122ZM365,497.845c-4.1-5.162-6.757-10.02-7.667-14.118a12.244,12.244,0,0,1-.227-4.631,7.352,7.352,0,0,1,1.215-3.189,8.062,8.062,0,0,1,6.68-3.34,7.775,7.775,0,0,1,6.681,3.34,7.386,7.386,0,0,1,1.216,3.189,12.217,12.217,0,0,1-.228,4.631C371.76,487.749,369.1,492.607,365,497.845Zm30.288,3.568a11.282,11.282,0,0,1-6.907,8.883,11.5,11.5,0,0,1-5.769.758,14.948,14.948,0,0,1-5.769-1.973,35.469,35.469,0,0,1-8.654-7.365c5.01-6.148,8.046-11.767,9.185-16.776a18.994,18.994,0,0,0,.379-6.454,12.309,12.309,0,0,0-2.049-5.162,12.793,12.793,0,0,0-10.7-5.39,12.988,12.988,0,0,0-10.7,5.39,12.321,12.321,0,0,0-2.05,5.162,15.769,15.769,0,0,0,.379,6.454c1.138,5.009,4.251,10.7,9.185,16.852a34.1,34.1,0,0,1-8.654,7.365,14.9,14.9,0,0,1-5.768,1.973,12.146,12.146,0,0,1-5.77-.758,11.282,11.282,0,0,1-6.907-8.883,12.559,12.559,0,0,1,.683-5.921c.227-.76.607-1.518.987-2.429.532-1.215,1.138-2.506,1.746-3.8l.077-.151c5.237-11.312,10.854-22.85,16.7-34.085l.228-.457c.608-1.138,1.216-2.352,1.822-3.492a16.668,16.668,0,0,1,2.126-3.341,7.971,7.971,0,0,1,12.146,0,16.8,16.8,0,0,1,2.126,3.341c.608,1.139,1.216,2.354,1.822,3.492l.228.457q8.634,16.922,16.625,34.161v.076c.608,1.216,1.139,2.581,1.747,3.8.379.909.759,1.668.987,2.428a12.83,12.83,0,0,1,.529,5.844Z" transform="translate(-329.776 -439.998)"/></svg>