<svg xmlns="http://www.w3.org/2000/svg" width="223.186" height="46.569" viewBox="0 0 223.186 46.569"><defs><style>.a{opacity:0.3;}</style></defs><path class="a" d="M36.231,0h8.583V27.22c0,14.322-9.153,19.348-22.431,19.348C9.153,46.569,0,41.542,0,27.22V1.091C0,.332.379,0,1.138,0H9.722V26.794c0,8.583,3.794,12.14,12.662,12.14,8.915,0,12.709-3.557,12.709-12.14V1.091C35.093.332,35.472,0,36.231,0ZM133.4,7.445V18.922h21.719c.379,0,.522.19.379.569l-2.371,5.88a1.194,1.194,0,0,1-1.28.759H139.09c-4.173,0-5.691,1.28-5.691,4.078v8.109h29.4c.379,0,.522.19.379.569L160.715,45a1.194,1.194,0,0,1-1.28.759h-32.2c-2.466,0-3.414-.854-3.414-2.7V3.177C123.82.948,125.053,0,128.278,0H162.8c.379,0,.522.19.379.522l-2.466,6.165a1.194,1.194,0,0,1-1.28.759ZM106.131,33.1c0,9.153-6.449,12.662-15.507,12.662h-24c-2.513,0-3.414-.854-3.414-2.7V3.177C63.214.948,64.4,0,67.672,0H87.162C95.7,0,103.95,1.47,103.95,11.618c0,4.363-1.565,8.062-5.311,10.006C103.808,23,106.131,27.647,106.131,33.1ZM72.651,19.064H87.874c5.027,0,6.449-1.944,6.449-5.928s-1.423-5.88-6.449-5.88H72.651ZM96.5,32.247c0-4.221-1.47-6.307-6.876-6.307H78.389c-4.173,0-5.738,1.28-5.738,4.078v8.489H89.628C95.035,38.507,96.5,36.42,96.5,32.247ZM222.648,45.763h-8.726a1.294,1.294,0,0,1-1.28-.759l-9.247-16.693h-8.489c-4.173,0-5.738,1.28-5.738,4.078V45.763h-8.346a.992.992,0,0,1-1.138-1.091V3.177C179.684.948,180.917,0,184.141,0h19.586c11.429,0,18.305,2.988,18.305,14.084,0,8.583-4.126,11.95-9.247,13.278l10.291,17.594C223.265,45.241,223.265,45.763,222.648,45.763ZM212.405,14.274c0-4.647-1.28-6.924-7.256-6.924H189.168V21.2H205.15C211.125,21.2,212.405,18.969,212.405,14.274Z"/></svg>