<svg xmlns="http://www.w3.org/2000/svg" width="24.164" height="24.164" viewBox="0 0 24.164 24.164"><defs><style>.a{fill:#fff;}</style></defs><path class="a" d="M18.182,15.682a3.7,3.7,0,0,1-7.4,0,4.42,4.42,0,0,1,.151-.982H9.8v5.286a.325.325,0,0,0,.3.3h8.684a.325.325,0,0,0,.3-.3V14.7H17.955A2.325,2.325,0,0,1,18.182,15.682Z" transform="translate(-2.4 -3.6)"/><path class="a" d="M19.5,12.165h1.661a.325.325,0,0,0,.3-.3V10.2a.325.325,0,0,0-.3-.3H19.5a.325.325,0,0,0-.3.3v1.661C19.118,12.014,19.269,12.165,19.5,12.165Z" transform="translate(-4.695 -2.424)"/><circle class="a" cx="2.341" cy="2.341" r="2.341" transform="translate(9.741 9.741)"/><path class="a" d="M0,0V24.164H24.164V0ZM18.123,16.688a1.485,1.485,0,0,1-1.435,1.435H7.476a1.434,1.434,0,0,1-1.435-1.435V7.476A1.434,1.434,0,0,1,7.476,6.041h9.213a1.434,1.434,0,0,1,1.435,1.435Z"/></svg>